# xmcd
#
# Track frame offsets: 
#        150
#        16487
#        32920
#        44522
#        61877
#        77305
#        90192
#        106265
#        119445
#        134302
#        155595
#        171460
#        188295
#        207985
#        235010
#        255075
#        264610
#
# Disc length: 3599 seconds
#
# Revision: 0
# Processed by: cddbd v1.5.2PL0 Copyright (c) Steve Scherf et al.
# Submitted via: ExactAudioCopy v0.99pb5
#
DISCID=d20e0d11
DTITLE=The Last Frontier and Takeharu  Kunimoto - Appalachian Shamisen
DYEAR=2006
DGENRE=Bluegrass - World music
TTITLE0=Appalachian Shamisen
TTITLE1=Are You Missing Me
TTITLE2=Tiger Creek
TTITLE3=Lonesome Dreams
TTITLE4=Lonesome Yokocho
TTITLE5=It was Your Love
TTITLE6=Eureko's Breakdown
TTITLE7=I'll Never Shed Another Tear
TTITLE8=Ninja Rag
TTITLE9=Little Girl And The Dreadful Snake
TTITLE10=Earl's Medley
TTITLE11=This World Is Not My Home
TTITLE12=Dream of A Geisha
TTITLE13=Pray For Asia
TTITLE14=Rawhide
TTITLE15=Shami and Bird
TTITLE16=Pancake Rag
EXTD=
EXTT0=
EXTT1=
EXTT2=
EXTT3=
EXTT4=
EXTT5=
EXTT6=
EXTT7=
EXTT8=
EXTT9=
EXTT10=
EXTT11=
EXTT12=
EXTT13=
EXTT14=
EXTT15=
EXTT16=
PLAYORDER=
